<svg width="118" height="118" viewBox="0 0 118 118" fill="none" xmlns="http://www.w3.org/2000/svg">
<path fill-rule="evenodd" clip-rule="evenodd" d="M20 0C8.9543 0 0 8.95429 0 20V97.9814C0 109.027 8.95429 117.981 20 117.981H97.9814C109.027 117.981 117.981 109.027 117.981 97.9814V20C117.981 8.9543 109.027 0 97.9814 0H20ZM95.2876 23.7031C100.14 23.7031 104.109 27.673 104.109 32.525V85.4564C104.109 90.3084 100.14 94.2782 95.2876 94.2782H24.7124C19.8604 94.2782 15.8906 90.3084 15.8906 85.4564V32.525C15.8906 27.673 19.8604 23.7031 24.7124 23.7031H95.2876ZM59.47 54.2485C59.7943 54.4512 60.2057 54.4512 60.53 54.2485L92.3308 34.373C93.1827 33.8405 92.8055 32.525 91.8008 32.525H28.1992C27.1946 32.525 26.8173 33.8405 27.6692 34.373L59.47 54.2485ZM26.2424 42.3032C25.5764 41.8869 24.7124 42.3657 24.7124 43.1512V84.4564C24.7124 85.0086 25.1602 85.4564 25.7124 85.4564H94.2876C94.8398 85.4564 95.2876 85.0086 95.2876 84.4564V43.1512C95.2876 42.3657 94.4236 41.8869 93.7576 42.3032L60.53 63.0704C60.2057 63.2731 59.7943 63.2731 59.47 63.0704L26.2424 42.3032Z" fill="#3d3d3d"/>
</svg>
