<svg xmlns="http://www.w3.org/2000/svg" width="35" height="36" fill="none"><path fill="#3d3d3d" fill-rule="evenodd" d="M5.5 3a3 3 0 0 0-3 3v24a3 3 0 0 0 3 3h24a3 3 0 0 0 3-3V6a3 3 0 0 0-3-3zm21.326 6.558c1.283 0 2.332.95 2.332 2.11v12.663c0 1.161-1.05 2.11-2.332 2.11H8.174c-1.283 0-2.332-.949-2.332-2.11V11.67c0-1.161 1.05-2.11 2.332-2.11zm-.661 2.485c.179-.102.107-.374-.098-.374H8.933c-.205 0-.277.272-.098.374l8.566 4.846a.2.2 0 0 0 .198 0zm.461 12.288a.2.2 0 0 0 .2-.2V14.122a.2.2 0 0 0-.298-.174L17.598 19a.2.2 0 0 1-.197 0l-8.929-5.052a.2.2 0 0 0-.298.174v10.01c0 .11.09.2.2.2z" clip-rule="evenodd"/></svg>