<svg xmlns="http://www.w3.org/2000/svg" width="35" height="36" fill="none"><g clip-path="url(#a)"><path fill="#3D3D3D" fill-rule="evenodd" d="M5.5 3a3 3 0 0 0-3 3v24a3 3 0 0 0 3 3h8.682l-.004-.511v-.002c-.006-.921-.014-2.23-.014-3.159 0 0-4.657 1.026-5.635-2.037 0 0-.759-1.99-1.85-2.502 0 0-1.523-1.073.107-1.053 0 0 1.656.137 2.568 1.764 1.457 2.639 3.899 1.88 4.85 1.429.153-1.094.585-1.853 1.064-2.304-3.719-.424-7.471-.978-7.471-7.554 0-1.88.506-2.823 1.57-4.026-.173-.444-.738-2.277.173-4.642 1.39-.444 4.59 1.846 4.59 1.846a15.24 15.24 0 0 1 4.179-.581c1.417 0 2.848.198 4.178.581 0 0 3.2-2.297 4.591-1.846.912 2.372.346 4.198.173 4.642 1.064 1.21 1.717 2.153 1.717 4.026 0 6.597-3.92 7.123-7.638 7.554.612.54 1.13 1.565 1.13 3.172 0 1.543-.008 3.33-.014 4.512v.007l-.004.684H29.5a3 3 0 0 0 3-3V6a3 3 0 0 0-3-3zm6.948 25.187c.192 0 .345-.11.345-.247 0-.157-.172-.266-.372-.246-.193 0-.346.11-.346.246 0 .158.153.267.373.246m-1.437-.22c-.2-.04-.333-.197-.287-.334.047-.137.24-.205.413-.157.2.061.326.218.286.355-.04.137-.24.205-.412.137m2.348-.115c-.02-.158.113-.288.306-.335.193-.02.373.068.393.198.02.137-.114.266-.306.314-.2.048-.373-.04-.393-.177m-5.09-2.598c-.113-.13-.133-.287-.046-.356.086-.088.24-.04.346.069.113.13.133.287.046.355-.086.09-.24.041-.346-.068m-.612-.643c-.133-.068-.2-.177-.153-.266.047-.069.153-.09.286-.048.133.068.2.178.153.267-.046.095-.18.116-.286.047m2.09 2.591c-.154-.13-.194-.335-.087-.424.086-.11.286-.089.432.069.133.13.173.335.087.423-.087.11-.28.09-.433-.068M8.9 26.177c-.106-.157-.106-.335 0-.404.107-.088.28-.02.373.137.106.157.106.335 0 .424-.087.068-.266 0-.373-.157" clip-rule="evenodd"/></g><defs><clipPath id="a"><path fill="#fff" d="M0 .5h35v35H0z"/></clipPath></defs></svg>