<svg xmlns="http://www.w3.org/2000/svg" width="35" height="35" fill="none"><path fill="#3d3d3d" d="M12.038 27.166c0 .137-.153.246-.346.246-.22.02-.373-.089-.373-.246 0-.137.153-.246.346-.246.2-.02.373.089.373.246m-2.07-.308c-.046.137.087.294.287.335.173.069.372 0 .412-.136.04-.137-.086-.294-.286-.356-.173-.048-.366.02-.412.157m2.941-.116c-.193.048-.326.178-.306.335.02.137.193.226.393.178.193-.048.326-.178.306-.315-.02-.13-.2-.218-.393-.198M17.287.547C8.06.547 1 7.745 1 17.227c0 7.58 4.644 14.068 11.277 16.351.852.157 1.151-.383 1.151-.827 0-.424-.02-2.762-.02-4.197 0 0-4.657 1.025-5.635-2.037 0 0-.758-1.99-1.85-2.502 0 0-1.523-1.074.107-1.053 0 0 1.656.137 2.568 1.764 1.457 2.638 3.899 1.88 4.85 1.428.153-1.093.586-1.852 1.065-2.303-3.72-.424-7.472-.978-7.472-7.554 0-1.88.506-2.823 1.57-4.027-.173-.444-.738-2.276.173-4.641 1.39-.444 4.591 1.846 4.591 1.846a15.24 15.24 0 0 1 4.178-.581c1.417 0 2.848.198 4.179.58 0 0 3.2-2.296 4.59-1.845.912 2.372.346 4.197.173 4.642 1.065 1.21 1.717 2.153 1.717 4.026 0 6.597-3.92 7.123-7.638 7.554.612.54 1.13 1.565 1.13 3.172 0 2.303-.02 5.154-.02 5.714 0 .445.307.985 1.152.828C29.489 31.295 34 24.808 34 17.227 34 7.745 26.515.547 17.287.547m-9.82 23.577c-.087.068-.067.226.047.356.106.109.259.157.345.068.087-.068.067-.226-.046-.356-.107-.109-.26-.157-.346-.068m-.719-.554c-.046.09.02.199.153.267.107.068.24.048.287-.048.046-.089-.02-.198-.154-.267-.133-.04-.239-.02-.286.048m2.156 2.434c-.106.089-.066.294.087.424.153.157.345.177.432.068.086-.089.047-.294-.087-.424-.146-.157-.345-.177-.432-.068m-.758-1.005c-.107.068-.107.246 0 .403.106.158.286.226.372.158.107-.09.107-.267 0-.424-.093-.157-.266-.226-.372-.137"/></svg>