<svg xmlns="http://www.w3.org/2000/svg" width="35" height="35" fill="none"><path fill="#3d3d3d" d="M30.786 2.625H4.207C2.99 2.625 2 3.588 2 4.77v25.46c0 1.182.99 2.145 2.207 2.145h26.579c1.218 0 2.214-.963 2.214-2.145V4.77c0-1.182-.996-2.145-2.214-2.145m-19.417 25.5H6.775V13.927h4.601v14.198zM9.072 11.988c-1.474 0-2.664-1.149-2.664-2.556 0-1.408 1.19-2.557 2.664-2.557 1.467 0 2.664 1.149 2.664 2.557 0 1.414-1.19 2.556-2.664 2.556m19.52 16.137h-4.594v-6.906c0-1.647-.035-3.766-2.388-3.766-2.394 0-2.76 1.794-2.76 3.646v7.026h-4.595V13.927h4.408v1.94h.062c.616-1.116 2.117-2.292 4.352-2.292 4.65 0 5.515 2.942 5.515 6.767z"/></svg>