<svg xmlns="http://www.w3.org/2000/svg" width="35" height="35" fill="none"><path fill="#ECF0F1" d="M17.5 8.655c-4.868 0-8.826 3.924-8.833 8.752a8.66 8.66 0 0 0 1.353 4.655l.208.332-.891 3.228 3.342-.87.321.192a8.859 8.859 0 0 0 4.493 1.222h.007c4.862 0 8.926-3.925 8.926-8.752 0-2.338-1.017-4.536-2.685-6.19a8.796 8.796 0 0 0-6.241-2.57m5.19 12.51c-.221.618-1.28 1.176-1.788 1.25-.844.125-1.5.059-3.181-.658-2.658-1.143-4.4-3.799-4.533-3.972-.134-.172-1.085-1.427-1.085-2.722s.683-1.933.93-2.198a.97.97 0 0 1 .71-.332c.174 0 .355 0 .51.007.16.006.38-.06.595.451.221.525.75 1.82.817 1.952.067.133.114.286.02.459-.509 1.009-1.051.97-.777 1.434 1.025 1.746 2.05 2.35 3.61 3.128.268.133.422.113.576-.067.154-.172.663-.77.837-1.029.174-.266.355-.22.596-.133.24.087 1.547.724 1.814.857.268.133.442.199.51.305.06.126.06.658-.161 1.269m6.596-18.54H5.714C3.94 2.625 2.5 4.053 2.5 5.813v23.375c0 1.76 1.44 3.187 3.214 3.187h23.572c1.774 0 3.214-1.428 3.214-3.187V5.813c0-1.76-1.44-3.188-3.214-3.188M17.493 27.939a10.68 10.68 0 0 1-5.076-1.282l-5.631 1.468 1.506-5.459a10.426 10.426 0 0 1-1.42-5.266c.007-5.803 4.769-10.525 10.621-10.525 2.84 0 5.505 1.096 7.514 3.088 2.002 1.992 3.207 4.635 3.207 7.45 0 5.805-4.868 10.526-10.72 10.526"/></svg>